<?xml version="1.0" encoding="UTF-8" standalone="no"?>
<svg
   xmlns:dc="http://purl.org/dc/elements/1.1/"
   xmlns:cc="http://creativecommons.org/ns#"
   xmlns:rdf="http://www.w3.org/1999/02/22-rdf-syntax-ns#"
   xmlns:svg="http://www.w3.org/2000/svg"
   xmlns="http://www.w3.org/2000/svg"
   xmlns:sodipodi="http://sodipodi.sourceforge.net/DTD/sodipodi-0.dtd"
   xmlns:inkscape="http://www.inkscape.org/namespaces/inkscape"
   width="267.96118mm"
   height="46.908508mm"
   viewBox="0 0 267.96118 46.908508"
   version="1.1"
   id="svg8"
   inkscape:version="1.0.1 (3bc2e813f5, 2020-09-07)"
   sodipodi:docname="KIV_CMYK.svg">
  <defs
     id="defs2">
    <clipPath
       clipPathUnits="userSpaceOnUse"
       id="clipPath853">
      <path
         d="M 0,0 H 918.425 V 291.969 H 0 Z"
         id="path851" />
    </clipPath>
  </defs>
  <sodipodi:namedview
     id="base"
     pagecolor="#ffffff"
     bordercolor="#666666"
     borderopacity="1.0"
     inkscape:pageopacity="0.0"
     inkscape:pageshadow="2"
     inkscape:zoom="0.35"
     inkscape:cx="920.66903"
     inkscape:cy="917.21743"
     inkscape:document-units="mm"
     inkscape:current-layer="layer1"
     inkscape:document-rotation="0"
     showgrid="false"
     fit-margin-top="0"
     fit-margin-left="0"
     fit-margin-right="0"
     fit-margin-bottom="0"
     inkscape:window-width="1583"
     inkscape:window-height="1030"
     inkscape:window-x="32"
     inkscape:window-y="0"
     inkscape:window-maximized="0" />
  <metadata
     id="metadata5">
    <rdf:RDF>
      <cc:Work
         rdf:about="">
        <dc:format>image/svg+xml</dc:format>
        <dc:type
           rdf:resource="http://purl.org/dc/dcmitype/StillImage" />
        <dc:title></dc:title>
      </cc:Work>
    </rdf:RDF>
  </metadata>
  <g
     inkscape:label="Vrstva 1"
     inkscape:groupmode="layer"
     id="layer1"
     transform="translate(137.76035,94.513778)">
    <g
       id="g841"
       inkscape:label="Katedra informatiky a výpočetní techniky_cmyk"
       transform="matrix(0.35277777,0,0,-0.35277777,-165.89247,-19.645833)">
      <g
         id="g843"
         transform="translate(168.3213,161.0854)">
        <path
           d="m 0,0 v -30.706 l 26.582,15.361 z"
           style="fill:#d3a20c;fill-opacity:1;fill-rule:nonzero;stroke:none"
           id="path845" />
      </g>
      <g
         id="g847">
        <g
           id="g849"
           clip-path="url(#clipPath853)">
          <g
             id="g855"
             transform="translate(79.7446,79.2551)">
            <path
               d="M 0,0 38.663,22.313 C 27.858,25.923 20.089,33.957 19.955,47.842 V 93.777 H 39.83 V 48.831 c 0.304,-9.143 5.081,-14.912 14.432,-14.912 2.645,0 4.905,0.481 6.823,1.346 l 2.088,1.205 c 3.482,2.53 5.321,6.818 5.51,12.361 v 44.462 h 0.043 L 0,132.969 Z"
               style="fill:#c6c7c4;fill-opacity:1;fill-rule:nonzero;stroke:none"
               id="path857" />
          </g>
          <g
             id="g859"
             transform="translate(223.4212,108.1049)">
            <path
               d="M 0,0 H 4.143 L 8.286,15.647 H 4.694 L 2.49,5.51 C 2.292,4.518 2.182,3.835 2.116,3.129 H 2.028 C 1.961,3.835 1.851,4.518 1.653,5.51 L -0.551,15.647 H -4.143 Z M 22.148,15.647 H 16.484 V 0 H 19.9 v 5.796 h 2.27 c 3.196,0 5.069,1.807 5.069,4.981 0,3.041 -1.873,4.87 -5.091,4.87 M 21.531,8.198 H 19.9 v 5.047 h 1.631 c 1.389,0 2.116,-0.793 2.116,-2.468 0,-1.697 -0.749,-2.579 -2.116,-2.579 M 29.709,0 H 38.26 V 2.865 H 33.125 V 15.647 H 29.709 Z M 40.363,2.49 V 0 h 10.159 v 2.733 h -6.303 l 6.017,10.446 v 2.468 h -9.609 v -2.755 h 5.818 z M 53.151,0 h 3.152 v 8.154 c 0,1.058 -0.022,2.204 -0.044,3.019 h 0.044 c 0.154,-0.925 0.353,-1.697 0.793,-2.622 L 61.284,0 h 3.438 v 15.647 h -3.13 V 8.022 c 0,-1.058 0,-2.094 0.044,-3.129 h -0.044 c -0.176,1.079 -0.397,1.807 -0.771,2.6 l -3.945,8.154 H 53.151 Z M 71.707,15.647 H 68.291 V 0 h 3.416 z"
               style="fill:#d3a20c;fill-opacity:1;fill-rule:nonzero;stroke:none"
               id="path861" />
          </g>
          <g
             id="g863"
             transform="translate(219.8069,139.4146)">
            <path
               d="M 0,0 V -2.49 H 10.16 V 0.242 H 3.857 l 6.016,10.447 v 2.468 H 0.264 v -2.755 h 5.819 z m 22.336,16.639 h -3.019 l -2.006,-2.534 h 2.623 z M 21.675,-2.49 h 3.438 L 20.727,13.157 H 16.562 L 12.154,-2.49 h 3.438 l 0.882,3.636 h 4.319 z m -4.606,6.082 1.102,4.606 c 0.176,0.728 0.33,1.345 0.44,2.248 h 0.044 c 0.133,-0.903 0.287,-1.52 0.441,-2.248 L 20.198,3.592 Z M 33.28,13.157 H 27.616 V -2.49 h 3.416 v 5.796 h 2.27 c 3.195,0 5.069,1.807 5.069,4.98 0,3.042 -1.874,4.871 -5.091,4.871 M 32.663,5.708 h -1.631 v 5.047 h 1.631 c 1.388,0 2.116,-0.794 2.116,-2.469 0,-1.697 -0.75,-2.578 -2.116,-2.578 M 48.475,-2.49 h 3.438 L 47.527,13.157 H 43.362 L 38.955,-2.49 h 3.438 l 0.881,3.636 h 4.32 z m -4.606,6.082 1.102,4.606 c 0.176,0.728 0.331,1.345 0.441,2.248 h 0.044 c 0.132,-0.903 0.286,-1.52 0.441,-2.248 L 46.999,3.592 Z M 54.416,-2.49 h 5.047 c 4.077,0 6.59,2.292 6.59,7.845 0,5.488 -2.491,7.802 -6.546,7.802 H 54.416 Z M 57.832,0 v 10.667 h 1.653 c 2.05,0 3.02,-1.411 3.02,-5.312 C 62.505,1.917 61.469,0 59.463,0 Z m 16.776,-2.865 c 3.878,0 6.215,2.358 6.215,8.198 0,5.862 -2.337,8.221 -6.215,8.221 -3.901,0 -6.237,-2.359 -6.237,-8.221 0,-5.84 2.336,-8.198 6.237,-8.198 m 0,2.689 c -1.719,0 -2.711,1.278 -2.711,5.509 0,4.276 0.992,5.51 2.711,5.51 1.697,0 2.666,-1.234 2.666,-5.51 0,-4.231 -0.969,-5.509 -2.666,-5.509 m 18.476,16.705 h -2.556 l -1.278,-1.565 -1.301,1.565 h -2.556 l 2.094,-2.535 h 3.504 z m -3.79,-19.394 c 3.283,0 5.421,1.961 5.686,5.664 L 91.608,3.526 C 91.454,0.859 90.66,-0.11 89.316,-0.11 c -1.697,0 -2.623,1.278 -2.623,5.465 0,4.188 0.992,5.444 2.601,5.444 1.432,0 2.16,-0.794 2.27,-3.614 l 3.394,0.617 c -0.089,3.834 -2.226,5.73 -5.642,5.73 -3.747,0 -6.127,-2.116 -6.127,-8.199 0,-6.17 2.138,-8.198 6.105,-8.198 m 12.017,2.953 v 4.165 h 5.223 V 6.81 h -5.223 v 3.768 h 5.554 v 2.579 h -8.97 V -2.49 h 9.124 v 2.578 z m 13.426,-2.953 c 3.438,0 5.421,2.028 5.421,4.87 0,2.337 -0.948,3.725 -3.284,4.518 l -2.248,0.75 c -1.234,0.418 -1.807,1.102 -1.807,2.049 0,0.992 0.728,1.653 1.874,1.653 1.344,0 2.38,-0.859 2.82,-2.799 l 2.777,1.389 c -0.639,2.821 -2.644,3.967 -5.465,3.967 -3.086,0 -5.267,-1.697 -5.267,-4.562 0,-2.204 1.035,-3.813 3.261,-4.518 l 2.248,-0.705 c 1.3,-0.397 1.719,-1.014 1.719,-2.072 0,-1.08 -0.705,-1.807 -1.917,-1.807 -1.587,0 -2.49,0.969 -2.997,3.019 l -2.998,-1.322 c 0.728,-2.843 2.689,-4.43 5.863,-4.43 m 16.112,0.375 h 3.79 l -4.363,9.366 4.165,6.281 h -3.747 l -4.297,-7.074 v 7.074 h -3.416 V -2.49 h 3.416 v 4.562 l 1.499,2.314 z m 14.426,19.129 h -3.019 l -2.006,-2.534 h 2.623 z M 140.537,0.088 v 4.165 h 5.223 V 6.81 h -5.223 v 3.768 h 5.553 v 2.579 h -8.969 V -2.49 h 9.124 v 2.578 z m 14.39,13.069 V 2.16 c 0,-3.086 2.05,-5.025 5.576,-5.025 3.548,0 5.576,1.939 5.576,5.025 v 10.997 h -3.394 V 2.314 c 0,-1.477 -0.816,-2.358 -2.182,-2.358 -1.366,0 -2.16,0.881 -2.16,2.358 V 13.157 Z M 169.538,-2.49 h 3.152 v 8.154 c 0,1.058 -0.022,2.204 -0.044,3.019 h 0.044 c 0.154,-0.925 0.353,-1.697 0.793,-2.622 l 4.188,-8.551 h 3.438 v 15.647 h -3.13 V 5.532 c 0,-1.058 0,-2.094 0.044,-3.13 h -0.044 c -0.176,1.08 -0.397,1.807 -0.771,2.601 l -3.945,8.154 h -3.725 z m 18.556,15.647 h -3.416 V -2.49 h 3.416 z m 6.504,-15.647 h 4.143 l 4.143,15.647 h -3.592 L 197.088,3.019 C 196.89,2.028 196.78,1.344 196.714,0.639 h -0.089 c -0.066,0.705 -0.176,1.389 -0.374,2.38 l -2.204,10.138 h -3.592 z m 14.087,2.578 v 4.165 h 5.223 V 6.81 h -5.223 v 3.768 h 5.553 v 2.579 h -8.969 V -2.49 h 9.124 v 2.578 z m 16.156,-2.578 h 3.658 l -2.821,6.81 c 1.609,0.639 2.513,2.093 2.513,4.143 0,2.887 -1.587,4.694 -5.224,4.694 h -5.575 V -2.49 h 3.416 v 6.192 h 1.719 z m -4.033,8.418 v 4.871 h 1.653 c 1.52,0 2.137,-0.794 2.137,-2.336 0,-1.587 -0.639,-2.535 -2.137,-2.535 z M 230.698,0 v -2.49 h 10.16 v 2.732 h -6.303 l 6.016,10.447 v 2.468 h -9.608 v -2.755 h 5.818 z m 16.194,13.157 h -3.416 V -2.49 h 3.416 z m 13.324,0 h -10.953 v -2.799 h 3.769 V -2.49 h 3.416 v 12.848 h 3.768 z m 5.988,-15.647 h 3.438 v 5.641 l 4.253,10.006 h -3.592 l -2.005,-5.488 c -0.177,-0.551 -0.265,-1.035 -0.331,-1.608 h -0.066 c -0.066,0.573 -0.176,1.057 -0.331,1.608 l -2.049,5.488 h -3.592 l 4.275,-10.006 z"
               style="fill:#d3a20c;fill-opacity:1;fill-rule:nonzero;stroke:none"
               id="path865" />
          </g>
          <g
             id="g867"
             transform="translate(229.5699,178.7683)">
            <path
               d="m 0,0 v 2.623 h -8.97 v -15.648 h 3.416 v 6.634 h 5.201 v 2.578 H -5.554 V 0 Z m 10.437,-13.025 h 3.438 L 9.49,2.623 H 5.324 L 0.917,-13.025 h 3.438 l 0.881,3.637 h 4.32 z m -4.606,6.083 1.102,4.606 c 0.177,0.727 0.331,1.344 0.441,2.248 H 7.418 C 7.55,-0.992 7.705,-1.609 7.859,-2.336 l 1.102,-4.606 z m 18.415,-6.083 h 3.791 l -4.364,9.367 4.166,6.281 h -3.747 l -4.297,-7.075 v 7.075 h -3.416 v -15.648 h 3.416 v 4.562 l 1.498,2.314 z M 30.32,2.623 V -8.375 c 0,-3.085 2.05,-5.024 5.576,-5.024 3.548,0 5.575,1.939 5.575,5.024 V 2.623 H 38.077 V -8.22 c 0,-1.477 -0.815,-2.358 -2.181,-2.358 -1.367,0 -2.16,0.881 -2.16,2.358 V 2.623 Z m 14.611,-15.648 h 8.551 v 2.865 H 48.347 V 2.623 H 44.931 Z M 64.362,2.623 H 53.409 v -2.799 h 3.769 v -12.849 h 3.416 v 12.849 h 3.768 z m 9.571,-15.648 h 3.438 L 72.986,2.623 H 68.82 l -4.407,-15.648 h 3.438 l 0.881,3.637 h 4.32 z m -4.606,6.083 1.102,4.606 c 0.177,0.727 0.331,1.344 0.441,2.248 h 0.044 c 0.132,-0.904 0.287,-1.521 0.441,-2.248 l 1.102,-4.606 z m 24.903,-6.083 h 3.438 L 93.283,2.623 H 89.117 L 84.71,-13.025 h 3.438 l 0.881,3.637 h 4.32 z m -4.606,6.083 1.102,4.606 c 0.177,0.727 0.331,1.344 0.441,2.248 h 0.044 c 0.132,-0.904 0.287,-1.521 0.441,-2.248 l 1.102,-4.606 z m 16.212,9.565 h -5.664 v -15.648 h 3.416 v 5.796 h 2.27 c 3.195,0 5.068,1.808 5.068,4.981 0,3.041 -1.873,4.871 -5.09,4.871 m -0.618,-7.449 h -1.63 V 0.22 h 1.63 c 1.389,0 2.116,-0.793 2.116,-2.468 0,-1.697 -0.749,-2.578 -2.116,-2.578 m 8.179,-8.199 h 8.551 v 2.865 h -5.135 V 2.623 h -3.416 z m 14.459,15.648 h -3.416 v -15.647 h 3.416 z m 11.414,-15.648 h 3.79 l -4.363,9.367 4.165,6.281 h -3.747 l -4.297,-7.075 v 7.075 h -3.416 v -15.648 h 3.416 v 4.562 l 1.498,2.314 z m 11.241,-0.374 c 3.879,0 6.215,2.358 6.215,8.198 0,5.862 -2.336,8.22 -6.215,8.22 -3.901,0 -6.237,-2.358 -6.237,-8.22 0,-5.84 2.336,-8.198 6.237,-8.198 m 0,2.688 c -1.719,0 -2.711,1.279 -2.711,5.51 0,4.275 0.992,5.51 2.711,5.51 1.697,0 2.667,-1.235 2.667,-5.51 0,-4.231 -0.97,-5.51 -2.667,-5.51 m 11.678,-2.314 h 4.143 l 4.143,15.648 h -3.592 l -2.204,-10.138 c -0.198,-0.992 -0.308,-1.675 -0.374,-2.38 h -0.089 c -0.066,0.705 -0.176,1.388 -0.374,2.38 l -2.204,10.138 h -3.592 z m 18.12,0 h 3.438 l -4.386,15.648 h -4.165 l -4.408,-15.648 h 3.438 l 0.882,3.637 h 4.319 z m -4.606,6.083 1.102,4.606 c 0.176,0.727 0.33,1.344 0.44,2.248 h 0.044 c 0.133,-0.904 0.287,-1.521 0.441,-2.248 l 1.102,-4.606 z m 10.547,-6.083 h 3.152 v 8.155 c 0,1.057 -0.022,2.203 -0.044,3.019 h 0.044 c 0.154,-0.926 0.352,-1.697 0.793,-2.623 l 4.187,-8.551 h 3.438 V 2.623 h -3.129 v -7.626 c 0,-1.058 0,-2.093 0.044,-3.129 h -0.044 c -0.177,1.08 -0.397,1.807 -0.772,2.6 l -3.944,8.155 H 186.25 Z M 204.855,3.57 h 2.622 l 2.402,2.535 h -3.019 z m -0.397,-16.595 h 3.438 v 5.642 l 4.253,10.006 h -3.592 l -2.005,-5.488 c -0.177,-0.551 -0.265,-1.036 -0.331,-1.609 h -0.066 c -0.066,0.573 -0.176,1.058 -0.331,1.609 l -2.049,5.488 h -3.593 l 4.276,-10.006 z m 14.849,-0.374 c 3.284,0 5.421,1.961 5.686,5.664 l -3.372,0.727 c -0.154,-2.667 -0.948,-3.637 -2.292,-3.637 -1.697,0 -2.623,1.279 -2.623,5.466 0,4.187 0.992,5.443 2.601,5.443 1.433,0 2.16,-0.793 2.27,-3.614 l 3.394,0.617 c -0.088,3.835 -2.226,5.73 -5.642,5.73 -3.746,0 -6.127,-2.115 -6.127,-8.198 0,-6.171 2.138,-8.198 6.105,-8.198 m 19.885,16.022 h -3.416 v -6.37 h -4.452 v 6.37 h -3.416 v -15.648 h 3.416 v 6.634 h 4.452 v -6.634 h 3.416 z m 12.363,-15.648 h 4.143 l 4.144,15.648 h -3.593 l -2.203,-10.138 c -0.199,-0.992 -0.309,-1.675 -0.375,-2.38 h -0.088 c -0.066,0.705 -0.177,1.388 -0.375,2.38 l -2.204,10.138 h -3.592 z m 16.886,16.485 2.094,2.534 h -2.557 L 266.7,4.43 265.4,5.994 h -2.557 l 2.094,-2.534 z m -2.799,-13.906 v 4.165 h 5.223 v 2.557 h -5.223 v 3.768 h 5.554 v 2.579 h -8.97 v -15.648 h 9.124 v 2.579 z m 8.707,-2.579 h 5.047 c 4.077,0 6.589,2.292 6.589,7.846 0,5.488 -2.49,7.802 -6.545,7.802 h -5.091 z m 3.416,2.491 V 0.132 h 1.653 c 2.049,0 3.019,-1.41 3.019,-5.311 0,-3.438 -1.036,-5.355 -3.041,-5.355 z"
               style="fill:#d3a20c;fill-opacity:1;fill-rule:nonzero;stroke:none"
               id="path869" />
          </g>
          <g
             id="g871"
             transform="translate(605.0606,136.9242)">
            <path
               d="M 0,0 H 3.438 L -0.948,15.647 H -5.113 L -9.521,0 h 3.438 l 0.882,3.636 h 4.319 z m -4.606,6.083 1.102,4.606 c 0.176,0.727 0.33,1.344 0.441,2.248 h 0.044 c 0.132,-0.904 0.286,-1.521 0.441,-2.248 L -1.477,6.083 Z M 14.699,0 h 4.143 l 4.144,15.647 H 19.393 L 17.19,5.51 C 16.991,4.518 16.881,3.835 16.815,3.129 H 16.727 C 16.661,3.835 16.55,4.518 16.352,5.51 L 14.148,15.647 H 10.556 Z M 29.37,16.595 h 2.623 l 2.402,2.534 h -3.02 z M 28.973,0 h 3.438 v 5.642 l 4.254,10.005 H 33.072 L 31.067,10.16 C 30.891,9.609 30.802,9.124 30.736,8.551 H 30.67 c -0.066,0.573 -0.176,1.058 -0.33,1.609 l -2.05,5.487 H 24.698 L 28.973,5.642 Z M 44.669,15.647 H 39.005 V 0 h 3.416 v 5.796 h 2.27 c 3.195,0 5.069,1.807 5.069,4.981 0,3.041 -1.874,4.87 -5.091,4.87 M 44.052,8.198 h -1.631 v 5.047 h 1.631 c 1.388,0 2.115,-0.793 2.115,-2.468 0,-1.697 -0.749,-2.579 -2.115,-2.579 m 14.003,-8.573 c 3.878,0 6.214,2.358 6.214,8.199 0,5.862 -2.336,8.22 -6.214,8.22 -3.901,0 -6.237,-2.358 -6.237,-8.22 0,-5.841 2.336,-8.199 6.237,-8.199 m 0,2.689 c -1.719,0 -2.711,1.278 -2.711,5.51 0,4.275 0.992,5.509 2.711,5.509 1.697,0 2.666,-1.234 2.666,-5.509 0,-4.232 -0.969,-5.51 -2.666,-5.51 m 18.476,16.705 h -2.556 l -1.278,-1.565 -1.301,1.565 H 68.84 l 2.093,-2.534 h 3.505 z m -3.79,-19.394 c 3.283,0 5.421,1.962 5.686,5.664 L 75.055,6.016 C 74.9,3.35 74.107,2.38 72.763,2.38 c -1.697,0 -2.623,1.278 -2.623,5.466 0,4.187 0.992,5.443 2.601,5.443 1.432,0 2.159,-0.793 2.27,-3.614 l 3.393,0.617 c -0.088,3.835 -2.225,5.73 -5.641,5.73 -3.747,0 -6.127,-2.116 -6.127,-8.198 0,-6.171 2.138,-8.199 6.105,-8.199 m 12.017,2.953 v 4.166 h 5.223 V 9.3 h -5.223 v 3.769 h 5.554 v 2.578 h -8.97 V 0 h 9.124 v 2.578 z m 18.651,13.069 H 92.456 v -2.799 h 3.768 V 0 h 3.416 v 12.848 h 3.769 z M 105.791,0 h 3.151 v 8.154 c 0,1.058 -0.022,2.204 -0.044,3.019 h 0.044 c 0.155,-0.925 0.353,-1.696 0.794,-2.622 L 113.923,0 h 3.438 v 15.647 h -3.129 V 8.022 c 0,-1.058 0,-2.094 0.044,-3.129 h -0.044 c -0.177,1.079 -0.397,1.807 -0.772,2.6 l -3.945,8.154 h -3.724 z m 15.587,16.595 h 2.601 l 1.829,2.534 h -2.909 z m 2.975,-0.948 h -3.416 V 0 h 3.416 z m 19.196,0 h -10.953 v -2.799 h 3.768 V 0 h 3.416 v 12.848 h 3.769 z m 5.798,-13.069 v 4.166 h 5.223 V 9.3 h -5.223 v 3.769 h 5.553 v 2.578 h -8.969 V 0 h 9.124 v 2.578 z m 14.005,-2.953 c 3.284,0 5.421,1.962 5.686,5.664 l -3.372,0.727 C 165.512,3.35 164.718,2.38 163.374,2.38 c -1.697,0 -2.623,1.278 -2.623,5.466 0,4.187 0.992,5.443 2.601,5.443 1.432,0 2.16,-0.793 2.27,-3.614 l 3.394,0.617 c -0.088,3.835 -2.226,5.73 -5.642,5.73 -3.747,0 -6.127,-2.116 -6.127,-8.198 0,-6.171 2.138,-8.199 6.105,-8.199 m 19.885,16.022 h -3.416 V 9.278 h -4.452 v 6.369 h -3.416 V 0 h 3.416 v 6.634 h 4.452 V 0 h 3.416 z M 186.825,0 h 3.151 v 8.154 c 0,1.058 -0.022,2.204 -0.044,3.019 h 0.044 c 0.154,-0.925 0.353,-1.696 0.793,-2.622 L 194.957,0 h 3.438 v 15.647 h -3.13 V 8.022 c 0,-1.058 0,-2.094 0.044,-3.129 h -0.044 c -0.176,1.079 -0.396,1.807 -0.771,2.6 l -3.945,8.154 h -3.724 z m 18.556,15.647 h -3.416 V 0 h 3.416 z M 216.794,0 h 3.791 l -4.364,9.366 4.165,6.281 h -3.746 l -4.298,-7.074 v 7.074 h -3.415 V 0 h 3.415 v 4.562 l 1.499,2.314 z m 9.774,0 h 3.438 v 5.642 l 4.253,10.005 h -3.592 l -2.005,-5.487 c -0.177,-0.551 -0.265,-1.036 -0.331,-1.609 h -0.066 c -0.066,0.573 -0.176,1.058 -0.331,1.609 l -2.049,5.487 h -3.592 l 4.275,-10.005 z"
               style="fill:#d3a20c;fill-opacity:1;fill-rule:nonzero;stroke:none"
               id="path873" />
          </g>
          <g
             id="g875"
             transform="translate(604.5096,165.7436)">
            <path
               d="m 0,0 h 3.791 l -4.364,9.366 4.165,6.281 H -0.154 L -4.452,8.573 v 7.074 H -7.868 V 0 h 3.416 v 4.562 l 1.499,2.314 z m 15.25,0 h 3.438 L 14.303,15.647 H 10.137 L 5.73,0 h 3.438 l 0.881,3.636 h 4.32 z m -4.606,6.083 1.102,4.606 c 0.177,0.727 0.331,1.344 0.441,2.248 h 0.044 c 0.132,-0.904 0.287,-1.521 0.441,-2.248 l 1.102,-4.606 z m 19.07,9.564 H 18.761 v -2.799 h 3.768 V 0 h 3.416 v 12.848 h 3.769 z M 35.512,2.578 v 4.166 h 5.223 V 9.3 h -5.223 v 3.769 h 5.554 v 2.578 h -8.97 V 0 H 41.22 V 2.578 Z M 44.219,0 h 5.047 c 4.077,0 6.589,2.292 6.589,7.846 0,5.487 -2.49,7.801 -6.545,7.801 h -5.091 z m 3.416,2.49 v 10.667 h 1.653 c 2.049,0 3.019,-1.411 3.019,-5.311 0,-3.438 -1.036,-5.356 -3.041,-5.356 z M 66.198,0 h 3.658 l -2.821,6.81 c 1.609,0.639 2.512,2.093 2.512,4.143 0,2.887 -1.586,4.694 -5.223,4.694 H 58.749 V 0 h 3.416 v 6.193 h 1.719 z m -4.033,8.419 v 4.87 h 1.653 c 1.52,0 2.137,-0.793 2.137,-2.336 0,-1.587 -0.639,-2.534 -2.137,-2.534 z M 81.424,0 h 3.438 L 80.476,15.647 H 76.311 L 71.903,0 h 3.438 l 0.882,3.636 h 4.319 z m -4.606,6.083 1.102,4.606 c 0.176,0.727 0.33,1.344 0.44,2.248 h 0.044 c 0.133,-0.904 0.287,-1.521 0.441,-2.248 l 1.102,-4.606 z m 19.9,9.564 H 93.302 V 0 h 3.416 z M 100.264,0 h 3.151 v 8.154 c 0,1.058 -0.022,2.204 -0.044,3.019 h 0.044 c 0.155,-0.925 0.353,-1.697 0.794,-2.622 L 108.396,0 h 3.438 v 15.647 h -3.129 V 8.022 c 0,-1.058 0,-2.094 0.044,-3.129 h -0.044 c -0.177,1.079 -0.397,1.807 -0.772,2.6 l -3.945,8.154 h -3.724 z m 24.116,13.025 v 2.622 h -8.969 V 0 h 3.416 v 6.634 h 5.201 v 2.578 h -5.201 v 3.813 z m 8.247,-13.4 c 3.879,0 6.215,2.358 6.215,8.199 0,5.862 -2.336,8.22 -6.215,8.22 -3.901,0 -6.237,-2.358 -6.237,-8.22 0,-5.841 2.336,-8.199 6.237,-8.199 m 0,2.689 c -1.719,0 -2.711,1.278 -2.711,5.51 0,4.275 0.992,5.509 2.711,5.509 1.697,0 2.667,-1.234 2.667,-5.509 0,-4.232 -0.97,-5.51 -2.667,-5.51 M 149.257,0 h 3.658 l -2.821,6.81 c 1.609,0.639 2.513,2.093 2.513,4.143 0,2.887 -1.587,4.694 -5.224,4.694 h -5.575 V 0 h 3.416 v 6.193 h 1.719 z m -4.033,8.419 v 4.87 h 1.653 c 1.52,0 2.137,-0.793 2.137,-2.336 0,-1.587 -0.639,-2.534 -2.137,-2.534 z M 155.553,0 h 2.909 v 9.278 c 0,0.948 0,2.094 -0.066,2.975 h 0.088 c 0.022,-0.418 0.154,-1.19 0.309,-1.895 L 161.261,0 h 2.711 l 2.402,10.358 c 0.132,0.705 0.242,1.322 0.308,1.917 h 0.066 c -0.044,-0.925 -0.066,-2.071 -0.066,-2.997 V 0 h 3.042 v 15.647 h -4.673 L 163.024,6.81 c -0.176,-0.794 -0.287,-1.543 -0.331,-2.116 h -0.066 c -0.044,0.573 -0.154,1.3 -0.33,2.094 l -2.072,8.859 h -4.672 z m 26.194,0 h 3.438 L 180.8,15.647 h -4.165 L 172.227,0 h 3.438 l 0.881,3.636 h 4.32 z m -4.606,6.083 1.102,4.606 c 0.177,0.727 0.331,1.344 0.441,2.248 h 0.044 c 0.132,-0.904 0.287,-1.521 0.441,-2.248 l 1.102,-4.606 z m 19.07,9.564 h -10.953 v -2.799 h 3.768 V 0 h 3.417 v 12.848 h 3.768 z m 5.798,0 h -3.416 V 0 h 3.416 z M 213.423,0 h 3.79 l -4.363,9.366 4.165,6.281 h -3.747 l -4.297,-7.074 v 7.074 h -3.416 V 0 h 3.416 v 4.562 l 1.499,2.314 z m 9.774,0 h 3.438 v 5.642 l 4.253,10.005 h -3.592 L 225.29,10.16 c -0.176,-0.551 -0.264,-1.036 -0.33,-1.609 h -0.067 c -0.066,0.573 -0.176,1.058 -0.33,1.609 l -2.05,5.487 h -3.592 l 4.276,-10.005 z"
               style="fill:#d3a20c;fill-opacity:1;fill-rule:nonzero;stroke:none"
               id="path877" />
          </g>
        </g>
      </g>
    </g>
  </g>
</svg>
